<mxfile host="app.diagrams.net" modified="2022-08-16T04:16:18.378Z" agent="5.0 (Macintosh; Intel Mac OS X 10_15_7) AppleWebKit/537.36 (KHTML, like Gecko) Chrome/103.0.0.0 Safari/537.36" etag="cZxigFXXLqAd-c_l0G0u" version="20.2.2" type="github">
  <diagram id="daczw1Ds058eOObDyhuI" name="Page-1">
    <mxGraphModel dx="1186" dy="528" grid="1" gridSize="10" guides="1" tooltips="1" connect="1" arrows="1" fold="1" page="1" pageScale="1" pageWidth="850" pageHeight="1100" math="0" shadow="0">
      <root>
        <mxCell id="0" />
        <mxCell id="1" parent="0" />
        <mxCell id="hnfH82SvJ_V_GbJaO930-1" value="Service&lt;br&gt;Subject&lt;br&gt;Context" style="whiteSpace=wrap;html=1;aspect=fixed;" vertex="1" parent="1">
          <mxGeometry x="420" y="200" width="90" height="90" as="geometry" />
        </mxCell>
        <mxCell id="hnfH82SvJ_V_GbJaO930-2" value="" style="endArrow=classic;html=1;rounded=0;exitX=1;exitY=0.5;exitDx=0;exitDy=0;entryX=0;entryY=0.5;entryDx=0;entryDy=0;" edge="1" parent="1" source="hnfH82SvJ_V_GbJaO930-1" target="hnfH82SvJ_V_GbJaO930-3">
          <mxGeometry width="50" height="50" relative="1" as="geometry">
            <mxPoint x="590" y="140" as="sourcePoint" />
            <mxPoint x="640" y="90" as="targetPoint" />
          </mxGeometry>
        </mxCell>
        <mxCell id="hnfH82SvJ_V_GbJaO930-3" value="StatusObserver" style="rounded=1;whiteSpace=wrap;html=1;" vertex="1" parent="1">
          <mxGeometry x="605" y="110" width="120" height="60" as="geometry" />
        </mxCell>
        <mxCell id="hnfH82SvJ_V_GbJaO930-4" value="HealthObserver" style="rounded=1;whiteSpace=wrap;html=1;" vertex="1" parent="1">
          <mxGeometry x="605" y="215" width="120" height="60" as="geometry" />
        </mxCell>
        <mxCell id="hnfH82SvJ_V_GbJaO930-5" value="" style="endArrow=classic;html=1;rounded=0;exitX=1;exitY=0.5;exitDx=0;exitDy=0;entryX=0;entryY=0.5;entryDx=0;entryDy=0;" edge="1" parent="1" source="hnfH82SvJ_V_GbJaO930-1" target="hnfH82SvJ_V_GbJaO930-4">
          <mxGeometry width="50" height="50" relative="1" as="geometry">
            <mxPoint x="440" y="270" as="sourcePoint" />
            <mxPoint x="490" y="220" as="targetPoint" />
          </mxGeometry>
        </mxCell>
        <mxCell id="hnfH82SvJ_V_GbJaO930-7" value="ApiObserver" style="rounded=1;whiteSpace=wrap;html=1;" vertex="1" parent="1">
          <mxGeometry x="605" y="320" width="120" height="60" as="geometry" />
        </mxCell>
        <mxCell id="hnfH82SvJ_V_GbJaO930-8" value="" style="endArrow=classic;html=1;rounded=0;exitX=1;exitY=0.5;exitDx=0;exitDy=0;entryX=0;entryY=0.5;entryDx=0;entryDy=0;" edge="1" parent="1" source="hnfH82SvJ_V_GbJaO930-1" target="hnfH82SvJ_V_GbJaO930-7">
          <mxGeometry width="50" height="50" relative="1" as="geometry">
            <mxPoint x="685" y="290" as="sourcePoint" />
            <mxPoint x="735" y="240" as="targetPoint" />
          </mxGeometry>
        </mxCell>
        <mxCell id="hnfH82SvJ_V_GbJaO930-13" value="Health State" style="rounded=1;whiteSpace=wrap;html=1;" vertex="1" parent="1">
          <mxGeometry x="160" y="110" width="120" height="60" as="geometry" />
        </mxCell>
        <mxCell id="hnfH82SvJ_V_GbJaO930-14" value="Running State" style="rounded=1;whiteSpace=wrap;html=1;" vertex="1" parent="1">
          <mxGeometry x="160" y="215" width="120" height="60" as="geometry" />
        </mxCell>
        <mxCell id="hnfH82SvJ_V_GbJaO930-15" value="API State" style="rounded=1;whiteSpace=wrap;html=1;" vertex="1" parent="1">
          <mxGeometry x="160" y="320" width="120" height="60" as="geometry" />
        </mxCell>
      </root>
    </mxGraphModel>
  </diagram>
</mxfile>
